# xmcd
#
# Track frame offsets:
#	150
#	17176
#	43616
#	58637
#	83621
#	103129
#	121007
#	138807
#	153088
#	163895
#	181019
#	196534
#	218532
#	231034
#	240501
#	255705
#	273789
#	289381
#
# Disc length: 4514 seconds
#
# Revision: 1
# Processed by: cddbd v1.4PL0 Copyright (c) Steve Scherf et al.
# Submitted via: audiograbber 1.81.02
#
DISCID=e311a012
DTITLE=div. - div.
DYEAR=1900
DGENRE=
TTITLE0=Ten Years After - I'd like to change the world
TTITLE1=Steppenwolf - Pusher man
TTITLE2=Steamhammer - Junior's wailing
TTITLE3=Free  -  All right now
TTITLE4=George Thorogood - Who do you love
TTITLE5=UFO - Prince Kajuku
TTITLE6=Steppenwolf - Monster
TTITLE7=Free - The Stealer
TTITLE8=John Mayall - Parchman Farm
TTITLE9=Neil Young - Long may you run
TTITLE10=Arlo Guthrie - Alices restaurant
TTITLE11=Vietnam
TTITLE12=Nancy Sinatra - Jackson
TTITLE13=Byrds - Ballod of an Easy Rider
TTITLE14=Status Quo - Gerdundula
TTITLE15=Eric Burdon - See See Rider
TTITLE16=Rolling Stones - Let's spend the night together
TTITLE17=Doors - When the music's over
EXTD=
EXTT0=
EXTT1=
EXTT2=
EXTT3=
EXTT4=
EXTT5=
EXTT6=
EXTT7=
EXTT8=
EXTT9=
EXTT10=
EXTT11=
EXTT12=
EXTT13=
EXTT14=
EXTT15=
EXTT16=
EXTT17=
PLAYORDER=
